<svg width="256" height="256" xmlns="http://www.w3.org/2000/svg">
 <g>
  <title>Uduvudu</title>
  <g id="mustaches">
   <path id="mustache_1" fill="#bd1789" d="m96.609375,106.450195c-21.889709,1.083008 -30.261902,13.475586 -42.1875,23.71875c-6.596741,7.683594 -11.889526,9.504883 -16.875,9.9375c-7.730835,-0.686523 -9.752472,-4.118164 -9.9375,-9.4375c1.445984,-8.450195 11.963989,-6.680664 7.4375,2c5.738525,-1.772461 6.071838,-4.961914 6.46875,-9.9375c-1.713623,-5.638672 -6.220276,-8.303711 -12.8125,-8.25c-11.481873,0.537109 -16.908539,8.250977 -17.0625,22.34375c2.883179,23.833008 22.499939,26.722656 35.625,26.59375c9.935425,-1.266602 20.634338,-2.520508 42.875,-13.875c11.722473,-5.402344 23.772583,-11.514648 37.859375,-11.4375c14.086853,-0.080078 26.136902,6.035156 37.859375,11.4375c22.240662,11.354492 32.939636,12.608398 42.875,13.875c13.125061,0.128906 32.741821,-2.760742 35.625,-26.59375c-0.153931,-14.092773 -5.580627,-21.806641 -17.0625,-22.34375c-6.592224,-0.049805 -11.098816,2.611328 -12.8125,8.25c0.396912,4.975586 0.730225,8.165039 6.46875,9.9375c-4.526489,-8.680664 5.991516,-10.450195 7.4375,-2c-0.184998,5.319336 -2.206665,8.750977 -9.9375,9.4375c-4.985413,-0.432617 -10.278198,-2.253906 -16.875,-9.9375c-11.925598,-10.243164 -20.297791,-22.635742 -42.1875,-23.71875c-15.021179,0.089844 -25.342773,5.054688 -31.390625,15.78125c-6.047852,-10.726563 -16.369446,-15.6875 -31.390625,-15.78125z"/>
   <path id="mustache_2" fill="#86ba0c" d="m96.609375,43.522461c-21.889709,1.083008 -30.261902,13.475586 -42.1875,23.71875c-6.596741,7.683594 -11.889526,9.504883 -16.875,9.9375c-7.730835,-0.686523 -9.752472,-4.118164 -9.9375,-9.4375c1.445984,-8.450195 11.963989,-6.680664 7.4375,2c5.738525,-1.772461 6.071838,-4.961914 6.46875,-9.9375c-1.713623,-5.638672 -6.220276,-8.303711 -12.8125,-8.25c-11.481873,0.537109 -16.908539,8.250977 -17.0625,22.34375c2.883179,23.833008 22.499939,26.722656 35.625,26.59375c9.935425,-1.266602 20.634338,-2.520508 42.875,-13.875c11.722473,-5.402344 23.772583,-11.514648 37.859375,-11.4375c14.086853,-0.080078 26.136902,6.035156 37.859375,11.4375c22.240662,11.354492 32.939636,12.608398 42.875,13.875c13.125061,0.128906 32.741821,-2.760742 35.625,-26.59375c-0.153931,-14.092773 -5.580627,-21.806641 -17.0625,-22.34375c-6.592224,-0.049805 -11.098816,2.611328 -12.8125,8.25c0.396912,4.975586 0.730225,8.165039 6.46875,9.9375c-4.526489,-8.680664 5.991516,-10.450195 7.4375,-2c-0.184998,5.319336 -2.206665,8.750977 -9.9375,9.4375c-4.985413,-0.432617 -10.278198,-2.253906 -16.875,-9.9375c-11.925598,-10.243164 -20.297791,-22.635742 -42.1875,-23.71875c-15.021179,0.089844 -25.342773,5.054688 -31.390625,15.78125c-6.047852,-10.726563 -16.369446,-15.6875 -31.390625,-15.78125z"/>
   <path id="mustache_3" fill="#ef7c00" d="m96.609375,169.379883c-21.889709,1.083008 -30.261902,13.475586 -42.1875,23.71875c-6.596741,7.683594 -11.889526,9.504883 -16.875,9.9375c-7.730835,-0.686523 -9.752472,-4.118164 -9.9375,-9.4375c1.445984,-8.450195 11.963989,-6.680664 7.4375,2c5.738525,-1.772461 6.071838,-4.961914 6.46875,-9.9375c-1.713623,-5.638672 -6.220276,-8.303711 -12.8125,-8.25c-11.481873,0.537109 -16.908539,8.250977 -17.0625,22.34375c2.883179,23.833008 22.499939,26.722656 35.625,26.59375c9.935425,-1.266602 20.634338,-2.520508 42.875,-13.875c11.722473,-5.402344 23.772583,-11.514648 37.859375,-11.4375c14.086853,-0.080078 26.136902,6.035156 37.859375,11.4375c22.240662,11.354492 32.939636,12.608398 42.875,13.875c13.125061,0.128906 32.741821,-2.760742 35.625,-26.59375c-0.153931,-14.092773 -5.580627,-21.806641 -17.0625,-22.34375c-6.592224,-0.049805 -11.098816,2.611328 -12.8125,8.25c0.396912,4.975586 0.730225,8.165039 6.46875,9.9375c-4.526489,-8.680664 5.991516,-10.450195 7.4375,-2c-0.184998,5.319336 -2.206665,8.750977 -9.9375,9.4375c-4.985413,-0.432617 -10.278198,-2.253906 -16.875,-9.9375c-11.925598,-10.243164 -20.297791,-22.635742 -42.1875,-23.71875c-15.021179,0.089844 -25.342773,5.054688 -31.390625,15.78125c-6.047852,-10.726563 -16.369446,-15.6875 -31.390625,-15.78125z"/>
  </g>
 </g>
</svg>
